<?xml version="1.0" encoding="UTF-8"?>
<svg xmlns="http://www.w3.org/2000/svg" viewBox="0 0 800 1000" preserveAspectRatio="xMidYMid meet">
  <!-- Cèdre du Liban - Silhouette vectorielle naturelle -->
  <g fill="#D9D9D9" fill-opacity="0.4">
    
    <!-- Silhouette complète du cèdre avec courbes naturelles -->
    <path d="M 400 50 
             C 380 45, 360 55, 350 75
             C 340 85, 345 95, 360 100
             C 370 105, 380 110, 390 115
             C 320 120, 280 135, 250 155
             C 230 165, 240 175, 260 180
             C 280 185, 310 190, 340 195
             C 360 200, 380 205, 390 210
             C 200 220, 150 240, 120 270
             C 100 285, 110 300, 140 310
             C 170 320, 220 330, 280 340
             C 320 350, 360 360, 390 370
             C 80 380, 30 410, 10 450
             C -5 470, 10 485, 40 495
             C 80 505, 140 515, 220 525
             C 280 535, 340 545, 390 555
             C 20 565, -20 600, -40 650
             C -55 675, -35 695, 0 710
             C 50 725, 120 740, 200 755
             C 280 770, 360 785, 390 800
             C 395 900, 395 950, 395 980
             C 395 990, 405 990, 405 980
             C 405 950, 405 900, 410 800
             C 440 785, 520 770, 600 755
             C 680 740, 750 725, 800 710
             C 835 695, 855 675, 840 650
             C 820 600, 780 565, 410 555
             C 460 545, 520 535, 580 525
             C 660 515, 720 505, 760 495
             C 790 485, 805 470, 790 450
             C 770 410, 720 380, 410 370
             C 440 360, 480 350, 520 340
             C 580 330, 630 320, 660 310
             C 690 300, 700 285, 680 270
             C 650 240, 600 220, 410 210
             C 420 205, 440 200, 460 195
             C 490 190, 520 185, 540 180
             C 560 175, 570 165, 550 155
             C 520 135, 480 120, 410 115
             C 420 110, 430 105, 440 100
             C 455 95, 460 85, 450 75
             C 440 55, 420 45, 400 50 Z" />
    
    <!-- Tronc avec courbes naturelles -->
    <path d="M 395 800 
             C 392 820, 390 840, 388 860
             C 386 880, 384 900, 382 920
             C 380 940, 378 960, 376 980
             C 374 990, 378 995, 385 995
             C 392 995, 396 990, 398 985
             C 400 980, 402 975, 404 970
             C 406 950, 408 930, 410 910
             C 412 890, 414 870, 416 850
             C 418 830, 420 810, 422 800
             C 420 798, 415 798, 410 800
             C 405 802, 400 802, 395 800 Z" />
    
    <!-- Système racinaire naturel -->
    <path d="M 350 980 
             C 320 985, 290 988, 260 990
             C 240 991, 230 995, 240 998
             C 260 1000, 290 1000, 320 998
             C 350 996, 380 994, 400 992
             C 420 994, 450 996, 480 998
             C 510 1000, 540 1000, 560 998
             C 570 995, 560 991, 540 990
             C 510 988, 480 985, 450 980
             C 430 978, 410 976, 400 975
             C 390 976, 370 978, 350 980 Z" />
    
    <!-- Racines secondaires -->
    <path d="M 280 985 
             C 250 988, 220 990, 200 992
             C 180 993, 170 996, 180 998
             C 200 999, 230 998, 260 996
             C 280 994, 290 990, 285 987
             C 282 985, 281 985, 280 985 Z" />
    
    <path d="M 520 985 
             C 550 988, 580 990, 600 992
             C 620 993, 630 996, 620 998
             C 600 999, 570 998, 540 996
             C 520 994, 510 990, 515 987
             C 518 985, 519 985, 520 985 Z" />
    
  </g>
</svg>
